<?xml version="1.0" standalone="no"?>
<!DOCTYPE svg PUBLIC "-//W3C//DTD SVG 20010904//EN"
 "http://www.w3.org/TR/2001/REC-SVG-20010904/DTD/svg10.dtd">
<svg version="1.0" xmlns="http://www.w3.org/2000/svg"
 width="244.000000pt" height="236.000000pt" viewBox="0 0 244.000000 236.000000"
 preserveAspectRatio="xMidYMid meet">

<g transform="translate(0.000000,236.000000) scale(0.100000,-0.100000)"
fill="#000000" stroke="none">
<path d="M1139 2333 c-13 -3 -14 -14 -6 -75 7 -56 6 -72 -4 -79 -28 -18 -43
-4 -51 46 -16 100 -15 98 -55 90 -73 -13 -163 -46 -163 -59 0 -8 12 -40 26
-72 24 -55 25 -59 8 -71 -10 -7 -21 -13 -25 -13 -4 0 -21 29 -38 65 -16 36
-34 65 -40 65 -24 0 -171 -97 -171 -113 0 -5 21 -34 47 -64 45 -53 46 -56 28
-69 -10 -8 -22 -14 -26 -14 -4 0 -29 25 -55 55 l-47 56 -34 -33 c-34 -33 -103
-121 -103 -131 0 -3 27 -25 60 -48 51 -35 58 -44 49 -60 -13 -26 -23 -24 -89
16 -32 19 -60 35 -62 35 -6 0 -72 -142 -82 -176 -5 -18 2 -23 64 -43 61 -19
70 -25 70 -47 0 -29 -10 -30 -93 -8 -70 18 -72 16 -82 -61 -3 -27 -9 -69 -12
-92 l-5 -43 65 0 c81 0 97 -6 97 -36 0 -23 -2 -24 -81 -24 l-81 0 6 -57 c4
-32 11 -81 17 -109 l10 -52 72 19 c40 10 73 19 74 19 1 0 8 -14 17 -30 8 -17
11 -28 7 -25 -9 5 -131 -33 -144 -45 -10 -8 71 -190 84 -190 4 0 35 17 70 37
59 35 62 36 75 18 17 -23 9 -33 -57 -75 -27 -18 -49 -38 -49 -44 0 -7 30 -45
68 -85 l67 -73 54 56 c49 53 55 56 70 42 10 -9 21 -13 26 -9 5 5 -15 -21 -43
-57 -29 -36 -52 -68 -52 -72 0 -12 156 -118 174 -118 1 0 17 31 36 69 30 63
35 69 56 61 12 -5 25 -6 29 -2 3 4 -10 -30 -29 -75 l-35 -82 62 -20 c34 -11
81 -24 104 -30 48 -10 42 -20 61 98 7 40 10 44 37 45 l30 1 -11 -75 c-6 -41
-9 -78 -7 -82 2 -5 51 -8 109 -8 l104 0 -6 58 c-3 31 -7 67 -10 80 -4 19 0 22
25 22 29 0 30 -1 42 -75 11 -73 12 -75 38 -69 45 11 181 55 181 59 0 2 -14 34
-30 71 -24 52 -28 69 -18 76 7 4 17 8 22 8 5 0 3 7 -4 15 -9 11 -17 12 -32 4
-11 -6 -22 -8 -25 -6 -2 3 5 8 16 12 18 5 21 13 19 44 -3 33 -6 38 -22 31 -11
-4 -22 -13 -24 -20 -3 -9 1 -11 12 -7 10 4 16 1 16 -8 0 -22 -28 -18 -40 4
-19 37 -6 84 15 51 4 -6 11 -8 16 -4 14 8 -9 34 -32 34 -21 0 -39 -28 -31 -50
3 -8 -4 -4 -16 10 -17 20 -24 23 -39 14 -26 -16 -28 -59 -4 -100 24 -40 28
-69 5 -39 -8 11 -22 20 -32 20 -12 0 -19 13 -25 48 -5 26 -13 47 -18 47 -5 0
-9 -5 -9 -10 0 -6 -8 -5 -19 2 -30 18 -51 -5 -51 -57 0 -29 6 -47 19 -60 19
-16 21 -16 45 10 25 27 26 27 26 6 0 -12 -4 -20 -8 -17 -5 3 -19 -4 -30 -15
-13 -12 -22 -15 -22 -7 0 6 -7 3 -16 -8 -14 -18 -14 -18 -3 6 11 22 11 24 -3
12 -9 -7 -29 -12 -45 -10 -16 1 -35 -2 -43 -6 -8 -4 -7 -1 3 7 10 9 17 29 18
53 l1 39 12 -35 c8 -19 11 -38 9 -42 -2 -5 3 -8 11 -8 13 0 16 12 16 60 0 33
0 62 0 65 0 3 -3 5 -7 5 -8 0 -9 -3 -12 -37 -1 -12 -6 -7 -16 14 -15 36 -48
39 -53 5 -2 -12 -10 -22 -19 -22 -11 0 -14 6 -9 25 4 14 2 25 -4 25 -5 0 -10
-5 -10 -12 0 -6 -6 -3 -14 7 -8 11 -11 26 -8 34 3 9 -11 -1 -31 -21 -26 -26
-42 -35 -57 -31 -30 8 -18 29 15 25 41 -5 26 19 -23 36 -23 7 -42 18 -42 24 0
7 4 7 13 1 22 -18 67 -25 67 -11 0 9 3 9 9 -2 6 -8 7 -18 4 -24 -3 -5 -1 -6 6
-2 6 4 9 12 6 17 -7 10 10 11 43 3 12 -4 22 -12 22 -18 0 -6 9 -12 20 -13 11
-1 18 2 15 8 -4 5 25 9 69 9 46 0 78 -4 82 -12 5 -7 3 -8 -6 -3 -9 6 -11 4 -5
-5 6 -10 10 -10 19 2 6 8 18 13 26 11 13 -4 13 -3 0 6 -8 6 -23 11 -32 11 -16
0 -22 13 -21 48 1 6 -8 12 -19 12 -10 0 -16 5 -13 10 9 14 -8 12 -24 -3 -11
-10 -13 -9 -8 5 4 11 1 15 -11 14 -9 -2 -18 -8 -20 -14 -2 -7 -10 -12 -18 -12
-9 0 -14 -11 -14 -30 0 -23 -4 -30 -20 -30 -27 0 -29 56 -2 63 10 3 6 5 -10 6
-16 0 -28 5 -28 11 0 27 66 140 82 140 5 0 6 -5 2 -12 -4 -6 -3 -8 4 -5 5 4 8
16 5 26 -3 10 0 22 6 25 6 4 13 -4 17 -19 3 -14 10 -25 15 -25 5 0 9 -7 9 -15
0 -8 -6 -15 -14 -15 -8 0 -16 -6 -19 -12 -5 -18 4 -48 15 -48 5 0 7 4 4 8 -2
4 4 8 15 8 10 0 19 -4 19 -9 0 -4 4 -6 9 -2 5 3 16 -2 24 -10 10 -10 17 -11
19 -4 2 7 12 0 21 -15 17 -25 17 -26 -3 -26 -14 0 -19 4 -14 13 5 9 3 9 -7 -1
-10 -9 -11 -15 -2 -20 6 -4 15 -20 18 -35 8 -32 7 -31 73 -12 29 9 58 13 64 9
7 -4 8 -3 4 4 -10 16 7 15 23 -1 10 -10 11 -9 6 4 -4 12 11 27 57 57 58 38
104 80 168 156 14 16 20 27 15 23 -6 -3 -21 2 -34 12 -20 15 -21 19 -7 30 12
10 18 9 34 -7 20 -20 20 -19 51 47 l31 66 -30 8 c-31 8 -35 14 -22 34 11 17
52 5 53 -16 1 -21 28 97 29 127 0 18 -5 22 -30 22 -24 0 -30 4 -30 21 0 18 5
21 31 17 l31 -5 -5 49 c-6 46 -5 49 14 43 11 -4 19 -3 18 2 -4 23 3 30 25 26
17 -4 33 3 50 20 29 29 33 62 12 93 -13 17 -13 21 -1 21 8 0 12 -4 9 -9 -3 -4
0 -8 6 -8 6 0 8 -4 5 -10 -3 -5 -2 -10 3 -10 6 0 13 -7 16 -16 4 -10 2 -13 -7
-8 -9 6 -9 4 1 -8 10 -13 10 -17 0 -21 -10 -4 -10 -6 1 -6 11 -1 11 -4 0 -18
-11 -13 -11 -15 -1 -9 11 6 13 1 11 -20 -2 -16 -1 -34 2 -39 15 -26 18 -46 7
-39 -8 5 -9 2 -5 -9 3 -9 1 -19 -5 -23 -7 -4 -8 -3 -4 4 4 7 2 12 -3 12 -14 0
-14 -13 1 -28 13 -13 9 -14 -72 -16 -41 -1 -45 -3 -48 -27 -3 -22 2 -27 29
-33 47 -9 97 -7 104 4 4 6 -7 10 -24 10 -40 0 -39 11 3 30 l33 16 -2 -31 c0
-16 4 -33 9 -37 7 -5 7 -8 -1 -8 -7 0 -13 -9 -13 -21 0 -16 -4 -19 -22 -14
-21 6 -21 6 -6 -6 21 -17 18 -68 -5 -80 -10 -6 -28 -4 -49 5 l-33 14 43 -5
c59 -8 53 10 -14 41 -63 29 -64 29 -64 18 0 -5 10 -14 23 -20 22 -10 22 -11
-5 -11 -16 -1 -28 -5 -28 -11 0 -5 12 -16 28 -25 l27 -16 -31 6 c-24 5 -33 2
-38 -10 -4 -12 0 -19 14 -22 11 -3 20 -12 20 -20 0 -11 -7 -13 -30 -8 -42 9
-38 -8 6 -24 l36 -13 -27 -14 c-32 -17 -45 -18 -45 -4 0 6 10 10 22 10 16 0
19 3 11 11 -18 18 -48 6 -47 -19 0 -12 -5 -22 -12 -22 -17 0 -37 -37 -28 -52
4 -6 3 -8 -3 -5 -6 4 -18 -2 -28 -13 -17 -19 -17 -21 1 -42 10 -13 12 -17 4
-10 -38 33 -82 -6 -53 -48 15 -21 15 -23 -1 -32 -20 -11 -21 -32 -1 -25 18 8
26 -5 15 -23 -7 -12 -13 -10 -34 10 -33 30 -36 64 -5 55 16 -5 20 -3 17 6 -3
8 -16 14 -29 14 -36 0 -38 -43 -4 -84 29 -34 55 -40 75 -16 10 12 10 21 1 41
-11 24 -10 25 10 10 15 -10 28 -12 39 -6 18 10 34 50 20 50 -4 0 -11 8 -14 17
-6 15 -4 15 14 -2 11 -10 23 -15 27 -12 4 4 -2 13 -12 21 -16 12 -17 16 -6 30
12 14 11 20 -5 38 -13 15 -5 12 25 -10 l45 -32 17 27 c22 33 12 54 -11 26 -11
-15 -21 -18 -31 -13 -11 7 -11 12 -1 22 16 16 15 28 -2 28 -8 0 -17 -8 -20
-17 -5 -11 -10 -13 -17 -6 -19 19 6 51 36 46 14 -3 31 0 38 6 8 6 17 8 20 4
13 -12 7 -23 -14 -23 -11 0 -17 -4 -14 -10 10 -16 52 -11 59 6 4 10 -1 25 -11
36 -17 19 -17 19 11 12 19 -5 27 -3 22 4 -7 12 19 10 31 -2 4 -4 2 -6 -6 -4
-8 2 -17 -5 -19 -15 -6 -27 -81 -132 -95 -132 -7 0 -11 -9 -9 -19 2 -12 -1
-16 -9 -10 -9 5 -10 2 -6 -9 4 -10 1 -17 -5 -17 -6 0 -8 -3 -5 -7 8 -8 -13
-34 -22 -29 -4 3 -29 -15 -56 -40 -27 -24 -53 -44 -58 -44 -4 0 -5 -6 -1 -12
5 -8 0 -7 -11 2 -17 13 -18 13 -13 0 9 -24 -40 -20 -58 4 -8 11 -14 37 -14 58
0 21 -4 38 -10 38 -5 0 -10 -11 -10 -25 0 -25 -1 -25 -25 -9 -34 22 -32 2 3
-28 35 -31 76 -88 62 -88 -5 0 -10 5 -10 10 0 6 -7 10 -16 10 -10 0 -14 -7
-12 -17 2 -10 10 -17 16 -15 7 1 11 -1 10 -5 -1 -5 15 -41 35 -81 l38 -73 37
22 c88 52 141 93 135 103 -4 6 -29 38 -57 71 -27 33 -46 57 -41 52 4 -4 17 1
28 10 19 17 21 16 72 -42 45 -51 55 -57 69 -46 22 19 129 151 125 155 -2 1
-32 22 -66 45 -57 38 -62 43 -50 61 6 11 15 20 19 20 4 0 33 -16 65 -35 32
-19 62 -35 66 -35 11 0 76 139 79 169 3 21 -4 26 -62 46 -64 21 -79 37 -61 63
7 12 21 10 80 -6 53 -15 73 -18 75 -9 14 48 26 126 26 163 l0 44 -76 0 -75 0
3 28 c3 26 5 27 76 30 l72 3 0 31 c0 43 -21 161 -30 171 -4 5 -35 1 -70 -8
-70 -18 -90 -15 -90 14 0 15 15 24 68 42 37 12 69 23 70 25 9 7 -51 145 -84
192 -1 2 -27 -12 -58 -31 -31 -19 -54 -36 -51 -38 2 -3 -6 -5 -20 -5 -13 0
-23 2 -23 6 2 27 -2 32 -19 19 -16 -13 -17 -12 -5 3 7 9 42 35 77 58 75 49 75
44 -13 140 l-60 65 -60 -57 c-58 -56 -74 -67 -70 -50 0 4 -2 15 -6 24 -6 13 5
32 38 72 l47 54 -38 29 c-44 35 -125 83 -140 83 -5 0 -22 -27 -38 -61 -34 -70
-38 -74 -64 -59 -19 10 -19 12 10 82 16 39 28 72 26 74 -5 5 -179 54 -192 54
-9 0 -18 -26 -26 -75 -9 -57 -16 -75 -28 -75 -35 0 -40 13 -31 85 6 51 5 72
-3 77 -12 8 -160 9 -188 1z m102 -183 c11 0 17 -4 14 -10 -3 -5 0 -7 8 -4 8 3
18 0 22 -6 6 -9 9 -9 15 1 7 10 12 10 23 1 7 -7 17 -9 21 -5 10 11 46 11 39 0
-3 -6 7 -8 25 -5 24 3 29 2 21 -8 -7 -8 -6 -14 2 -20 7 -4 9 -3 6 3 -4 6 0 13
8 17 8 3 15 1 15 -4 0 -5 11 -12 25 -16 14 -3 25 -10 25 -15 0 -5 5 -9 11 -9
5 0 8 4 4 9 -3 5 0 13 6 17 8 4 9 3 5 -4 -4 -7 -2 -12 5 -12 6 0 18 -8 25 -17
12 -16 15 -16 24 -3 8 13 10 12 10 -4 0 -12 5 -16 16 -12 10 4 13 2 8 -6 -5
-7 -2 -9 7 -6 11 4 16 -2 17 -23 l2 -30 -39 21 c-48 24 -58 25 -41 5 10 -12
10 -15 -4 -15 -18 0 -20 -8 -7 -29 7 -10 11 -9 23 8 20 28 31 15 12 -15 -9
-13 -14 -29 -12 -36 3 -7 12 1 22 20 17 32 36 43 36 20 0 -7 -7 -22 -15 -32
-27 -36 -15 -42 14 -7 17 21 31 30 35 23 3 -6 2 -13 -4 -17 -14 -8 -13 -45 1
-45 8 0 8 -5 -1 -15 -21 -25 5 -17 30 10 26 27 41 25 33 -5 -3 -11 -9 -17 -14
-14 -5 3 -9 -6 -9 -20 0 -14 5 -26 10 -26 6 0 10 4 10 9 0 8 8 11 45 20 5 1
11 -3 14 -10 2 -6 -1 -9 -6 -6 -5 3 -15 2 -23 -3 -12 -8 -13 -13 -3 -28 9 -15
9 -22 0 -31 -19 -19 3 -12 35 10 28 21 30 21 43 3 7 -10 10 -23 7 -29 -4 -5
-8 -2 -10 8 -5 26 -19 20 -31 -14 -13 -39 -13 -39 -1 -39 6 0 10 7 10 15 0 9
6 15 13 14 6 -1 22 -1 34 0 l22 1 -19 33 c-11 19 -45 61 -75 94 -51 57 -67 94
-46 107 5 4 7 -3 4 -14 -4 -14 0 -20 13 -22 11 0 24 -2 30 -2 18 -2 44 -27 38
-37 -3 -5 -11 -6 -17 -3 -7 4 1 -7 17 -24 16 -17 33 -29 38 -26 4 3 8 -2 8
-11 0 -11 -5 -15 -15 -11 -12 4 -13 2 -2 -14 6 -11 14 -15 15 -10 3 7 9 7 18
-1 20 -16 18 -29 -3 -23 -10 3 -5 -2 11 -11 22 -13 26 -19 15 -26 -11 -7 -11
-9 2 -9 21 0 35 -18 44 -52 5 -21 3 -27 -15 -33 -12 -4 -27 -2 -33 4 -6 6 -16
11 -21 11 -6 0 -4 -5 4 -10 12 -8 13 -10 1 -10 -8 0 -23 -8 -34 -17 -15 -13
-19 -14 -13 -3 4 8 1 7 -7 -3 -9 -10 -19 -18 -23 -19 -12 0 -63 106 -56 117 3
6 2 7 -3 3 -8 -8 -102 102 -97 114 1 5 -2 7 -6 6 -9 -3 -143 81 -154 97 -4 5
-8 7 -8 3 0 -4 -12 -3 -27 3 -46 18 -162 47 -167 42 -3 -3 -13 -2 -23 2 -23
11 -92 12 -86 3 2 -5 -3 -8 -11 -8 -9 0 -16 6 -16 13 0 8 -3 9 -8 1 -4 -6 -17
-10 -29 -9 -13 1 -21 -1 -18 -3 3 -3 -26 -15 -64 -27 -38 -12 -86 -33 -107
-46 -21 -12 -34 -17 -30 -10 7 10 4 11 -13 2 -11 -7 -21 -14 -21 -17 0 -3 5
-2 10 1 24 15 7 -4 -17 -21 -22 -14 -25 -14 -15 -2 9 11 10 18 2 23 -6 4 -9 3
-8 -2 4 -11 -32 -55 -57 -70 -11 -6 -19 -16 -17 -22 1 -6 -3 -11 -9 -11 -5 0
-8 -4 -4 -9 3 -5 0 -13 -6 -17 -8 -4 -9 -3 -5 4 4 7 3 12 -3 12 -5 0 -13 -9
-16 -20 -4 -11 -11 -17 -17 -14 -6 4 -8 2 -5 -3 4 -6 22 -20 39 -30 l33 -19
49 53 c26 29 42 51 34 48 -17 -7 -40 29 -32 50 6 14 10 13 33 -9 l26 -25 51
33 c50 31 51 33 38 58 -12 23 -12 27 3 32 19 8 35 -12 29 -35 -3 -14 4 -14 58
4 87 29 258 29 338 -1 36 -13 55 -16 52 -8 -7 19 19 47 35 37 12 -8 12 -13 -1
-33 -16 -24 -15 -25 26 -46 43 -23 114 -85 156 -137 14 -16 24 -28 23 -26 -2
2 6 11 18 19 15 10 24 11 31 4 13 -13 -6 -42 -28 -42 -9 0 -6 -14 11 -49 14
-27 25 -54 25 -61 0 -7 8 -9 23 -5 36 12 41 11 44 -7 5 -21 -36 -36 -48 -17
-7 11 -9 10 -9 -5 0 -15 -7 -12 -41 19 -22 20 -62 50 -87 66 -30 19 -51 41
-59 62 -10 27 -12 29 -13 10 -2 -13 -3 -29 -4 -35 0 -8 -16 -13 -36 -14 -52 0
-64 6 -43 23 50 41 -23 -9 -95 -65 l-83 -64 -82 79 c-80 77 -198 173 -213 173
-4 0 7 -11 26 -25 19 -14 30 -25 24 -25 -5 0 5 -7 22 -16 18 -8 74 -56 125
-105 52 -49 96 -89 98 -89 2 0 36 24 75 54 65 49 75 53 121 52 44 -1 50 -4 53
-24 3 -18 -1 -22 -23 -22 -15 0 -28 -7 -32 -17 -9 -25 -30 -40 -92 -69 l-54
-25 -21 21 c-12 11 -26 20 -30 20 -4 0 4 -10 19 -22 14 -13 28 -34 31 -48 5
-29 -5 -115 -13 -106 -3 3 -14 1 -24 -5 -17 -8 -19 -6 -19 21 0 16 4 30 10 30
5 0 9 -3 9 -7 -3 -20 2 -34 10 -28 11 6 10 45 -1 45 -4 0 -8 5 -8 11 0 5 4 8
9 4 5 -3 13 0 17 6 4 8 3 9 -4 5 -16 -10 -15 6 1 24 10 12 9 12 -6 0 -30 -22
-47 -66 -47 -120 l0 -50 -56 0 -57 0 6 49 c7 63 37 122 79 156 l33 27 -32 -18
c-30 -17 -42 -17 -165 -5 -139 14 -416 24 -338 13 39 -6 45 -10 46 -32 1 -14
-3 -28 -10 -32 -7 -5 -5 -8 6 -8 14 0 15 -5 8 -29 -4 -16 -6 -32 -2 -35 3 -3
0 -6 -6 -6 -15 0 -16 -32 -1 -47 8 -8 8 -13 0 -18 -7 -3 -10 -1 -9 6 2 7 -1
13 -7 14 -5 0 -16 4 -23 9 -11 6 -10 11 2 25 14 15 14 18 2 18 -8 0 -15 -3
-14 -6 2 -18 -4 -22 -17 -11 -12 10 -13 8 -10 -10 5 -27 15 -39 15 -20 0 8 19
-6 42 -30 23 -25 38 -39 34 -32 -4 6 -3 12 1 12 5 0 15 -6 22 -12 9 -8 12 -9
7 -1 -4 7 1 9 14 6 11 -3 20 0 20 6 0 11 39 9 59 -3 5 -4 13 -2 16 4 4 6 3 10
-2 9 -19 -3 -33 2 -33 12 0 6 9 9 20 6 11 -3 18 -2 15 3 -12 20 30 19 49 -1
17 -17 18 -21 4 -16 -9 3 -22 -1 -30 -11 -10 -12 -10 -14 0 -8 16 10 34 -36
18 -46 -7 -5 -4 -8 7 -8 14 0 17 5 12 20 -4 12 0 26 10 36 12 13 13 19 4 30
-7 8 -9 17 -5 21 3 3 6 1 6 -6 0 -9 4 -8 15 3 24 23 19 39 -7 26 -20 -9 -21
-9 -7 2 8 7 18 21 22 31 5 15 10 16 27 7 11 -6 25 -8 30 -5 6 3 10 4 10 0 0
-3 -11 -10 -25 -15 -22 -8 -31 -26 -26 -53 1 -5 -3 -6 -8 -3 -5 4 -12 2 -15
-3 -3 -5 1 -11 9 -15 8 -3 15 -11 15 -18 0 -10 -2 -10 -9 1 -7 11 -10 9 -16
-8 -3 -11 -10 -21 -15 -21 -4 0 -6 -9 -3 -20 5 -19 -7 -24 -54 -23 -7 1 -11
-3 -8 -7 3 -4 -3 -14 -12 -21 -10 -8 -14 -9 -10 -2 4 6 3 15 -3 18 -8 5 -7 11
1 21 6 8 9 17 5 21 -3 3 -6 1 -6 -6 0 -7 -4 -10 -9 -6 -6 3 -8 -4 -6 -15 5
-28 -13 -25 -27 5 -10 23 -28 26 -28 4 0 -6 4 -8 9 -5 15 10 23 -44 9 -61 -11
-13 -13 -13 -18 2 -6 16 -7 16 -20 -1 -8 -10 -10 -15 -4 -11 7 4 17 1 23 -6 8
-11 5 -17 -14 -27 -13 -7 -22 -17 -19 -22 3 -4 0 -8 -5 -8 -6 0 -11 -5 -11
-11 0 -5 4 -7 10 -4 6 3 7 -1 4 -9 -5 -13 -8 -13 -20 -2 -7 8 -15 20 -16 27
-2 7 -11 20 -21 29 -9 8 -28 41 -41 73 -13 33 -25 55 -27 49 -2 -5 -14 -13
-27 -16 -16 -5 -24 -3 -28 9 -8 20 -1 27 30 29 20 1 24 5 20 21 -2 11 -6 40
-7 65 -2 45 -2 45 -34 42 -29 -4 -33 -1 -33 18 0 19 4 22 29 18 29 -4 30 -3
36 44 5 35 19 64 50 106 55 73 159 172 180 172 9 0 14 4 11 9 -4 5 6 19 21 31
26 20 27 20 3 9 -14 -7 -73 -60 -132 -119 -60 -59 -108 -102 -108 -95 0 7 13
37 28 68 16 31 25 54 20 51 -14 -9 -49 16 -46 33 2 9 -3 18 -11 21 -8 3 -11 0
-7 -6 3 -6 -3 -13 -14 -17 -13 -4 -20 -15 -20 -31 0 -15 -4 -23 -10 -19 -6 4
-9 1 -8 -7 2 -7 -5 -12 -15 -12 -15 2 -16 -1 -5 -15 7 -9 1 -6 -13 7 -14 12
-31 22 -37 22 -7 0 -12 6 -12 13 0 8 -3 8 -8 1 -10 -15 -42 -25 -42 -14 0 6 8
11 18 11 14 1 14 2 1 6 -11 3 -14 12 -11 34 2 16 8 32 13 35 5 3 9 14 9 25 0
10 6 18 13 17 6 -2 11 5 11 15 -2 14 1 15 11 7 15 -13 16 5 1 29 -6 9 -5 12 2
7 6 -3 14 3 17 15 4 11 21 30 38 41 18 11 23 17 12 14 -16 -6 -15 -2 7 19 15
14 32 25 39 25 6 0 8 7 5 16 -3 8 -2 12 4 9 13 -8 52 36 45 52 -3 10 0 11 13
4 11 -6 25 -5 41 4 13 7 19 14 12 16 -6 2 -2 10 10 17 12 8 18 9 14 3 -3 -6
-1 -11 4 -11 6 0 11 7 11 15 0 19 14 19 30 0 7 -8 16 -12 22 -9 5 4 5 11 -1
18 -13 16 -4 27 15 19 8 -3 14 1 14 11 0 9 5 16 11 16 5 0 7 -4 4 -10 -3 -5
-2 -10 4 -10 5 0 14 8 20 17 9 16 11 16 32 -2 l22 -20 -12 22 c-10 20 -9 22 5
16 13 -5 15 -3 9 8 -7 10 -2 9 17 -3 18 -12 29 -14 33 -7 4 6 13 8 21 5 8 -3
14 -1 14 4 0 6 5 10 11 10 5 0 7 -4 4 -10 -3 -5 1 -10 10 -10 9 0 14 4 10 9
-3 5 0 13 6 17 8 4 9 3 5 -4 -4 -7 -1 -12 7 -12 8 0 18 7 21 16 4 10 12 14 22
10 9 -3 25 -6 35 -6z m479 -158 c-5 -2 -10 -8 -10 -13 0 -6 4 -8 9 -5 4 3 6
-6 3 -19 -2 -14 -8 -25 -12 -25 -14 0 -38 36 -40 60 -3 40 -1 42 30 23 17 -10
26 -19 20 -21z m-550 -64 c0 -11 -8 -18 -20 -18 -14 0 -20 7 -20 24 0 26 20
40 32 22 4 -6 8 -19 8 -28z m162 6 c-6 -35 -32 -31 -32 5 0 23 4 28 18 24 14
-3 18 -11 14 -29z m368 -23 c0 -6 -4 -13 -10 -16 -5 -3 -10 1 -10 9 0 9 5 16
10 16 6 0 10 -4 10 -9z m-63 -97 c8 -21 -23 -52 -38 -37 -8 8 -8 17 0 32 14
25 29 27 38 5z m148 -14 c3 -5 1 -10 -4 -10 -6 0 -11 5 -11 10 0 6 2 10 4 10
3 0 8 -4 11 -10z m-1285 -154 c0 -2 -8 -10 -17 -17 -16 -13 -17 -12 -4 4 13
16 21 21 21 13z m1160 -84 c67 -49 101 -85 87 -94 -8 -5 -7 -8 6 -8 16 0 23
-20 11 -32 -10 -11 -45 5 -40 18 4 11 -9 12 -72 7 l-77 -6 33 37 c39 44 38 70
-1 74 -21 3 -27 9 -27 28 0 22 2 24 23 13 12 -7 38 -24 57 -37z m-93 6 c-3 -7
-5 -2 -5 12 0 14 2 19 5 13 2 -7 2 -19 0 -25z m-879 -34 c28 -20 28 -34 0 -34
-32 0 -52 15 -45 34 8 20 17 20 45 0z m862 -1 c0 -4 -17 -24 -37 -45 -32 -33
-43 -38 -83 -38 l-45 0 44 23 c24 12 51 32 60 44 15 21 61 32 61 16z m80 2 c0
-13 -33 -54 -48 -60 -14 -5 -15 -4 -4 6 6 7 12 21 12 30 0 10 -6 20 -12 22 -7
3 2 6 20 6 17 1 32 -1 32 -4z m-1029 -28 c-8 -11 -18 -118 -11 -137 0 -3 2
-35 3 -72 1 -57 4 -68 20 -72 13 -3 18 -10 13 -21 -3 -9 1 -23 9 -31 17 -17
21 -39 5 -29 -14 8 -13 -18 2 -50 12 -26 28 -34 28 -12 1 6 10 -5 21 -25 19
-37 34 -52 23 -24 -8 21 35 43 47 25 6 -10 1 -21 -15 -35 l-24 -22 59 -66 c33
-37 57 -72 54 -77 -4 -5 -1 -9 4 -9 6 0 11 -7 11 -16 0 -8 4 -13 9 -9 5 3 13
0 17 -7 4 -7 4 -10 -1 -6 -4 4 -15 2 -24 -4 -9 -7 -13 -9 -9 -4 12 14 -11 46
-32 46 -21 0 -70 -47 -70 -67 0 -7 -5 -13 -11 -13 -5 0 -7 6 -3 13 5 8 2 8 -9
-2 -15 -12 -17 -11 -17 3 0 11 -4 14 -12 10 -10 -6 -10 -5 0 8 10 12 9 18 -3
28 -12 10 -13 16 -4 27 10 11 14 11 29 -2 22 -20 35 -7 14 16 -18 20 0 39 19
20 6 -6 17 -11 25 -11 8 0 -3 20 -27 47 -22 26 -37 50 -34 53 3 3 10 -3 17
-13 21 -35 44 -58 49 -50 9 15 -44 66 -71 69 -15 1 -41 -6 -59 -17 -18 -11
-41 -19 -50 -17 -13 2 -3 15 39 46 38 28 55 47 52 57 -4 8 -11 12 -16 9 -6 -4
-6 -9 2 -14 7 -4 8 -10 3 -13 -11 -7 -47 63 -58 111 -6 32 -30 41 -30 12 0 -8
-21 -21 -47 -29 -27 -8 -48 -18 -48 -23 0 -11 11 -10 60 7 52 18 50 18 50 1 0
-8 -18 -21 -41 -30 -34 -14 -44 -14 -57 -4 -13 12 -14 10 -3 -10 13 -24 28
-24 83 4 33 17 38 17 38 1 0 -7 -20 -23 -45 -37 -25 -14 -45 -28 -45 -32 0
-12 7 -10 50 12 42 21 60 25 60 12 0 -12 -56 -42 -64 -34 -4 4 -7 2 -5 -3 4
-16 -12 -45 -22 -39 -5 3 -5 13 1 25 13 23 7 25 -14 3 -15 -14 -16 -13 -16 12
0 14 -8 41 -18 58 -10 17 -18 42 -18 56 1 14 -7 34 -16 44 -10 11 -16 22 -13
25 3 2 11 -4 19 -14 18 -25 64 -13 72 20 3 14 10 25 16 25 5 0 6 -9 3 -20 -7
-23 7 -26 25 -5 17 20 5 45 -22 46 l-23 2 23 4 c12 2 22 11 22 19 0 11 -4 12
-19 4 -11 -5 -28 -10 -38 -9 -12 0 -7 6 15 16 22 12 32 24 32 40 0 21 -4 23
-49 23 -53 0 -81 -7 -81 -20 0 -5 26 -7 58 -5 54 4 48 1 -25 -11 -18 -3 -33
-10 -33 -16 0 -6 13 -8 38 -4 l37 7 -32 -20 c-45 -28 -42 -43 7 -35 l39 6 -12
-31 c-12 -32 -37 -43 -37 -16 0 8 5 15 10 15 6 0 10 5 10 10 0 15 -16 12 -34
-6 -9 -8 -17 -13 -17 -10 -3 15 -7 26 -9 31 -1 3 -4 10 -5 15 -1 6 -4 13 -5
18 -2 4 -3 23 -4 43 -1 27 3 35 12 31 11 -4 13 7 11 47 -3 49 -1 53 34 77 21
14 35 29 33 33 -3 5 5 6 17 4 12 -2 31 3 42 11 25 19 31 20 16 3z m949 -32 c0
-21 -5 -25 -31 -25 l-30 0 28 25 c35 30 33 30 33 0z m-725 -15 c-3 -5 -11 -10
-16 -10 -6 0 -7 5 -4 10 3 6 11 10 16 10 6 0 7 -4 4 -10z m88 3 c7 -4 23 -6
37 -5 16 2 29 -4 37 -16 10 -17 8 -19 -18 -19 -16 0 -29 3 -29 7 0 3 -9 6 -21
6 -16 0 -19 -5 -14 -23 3 -13 2 -23 -2 -22 -5 1 -15 1 -23 -1 -11 -1 -9 -4 5
-10 19 -8 19 -9 -2 -9 -13 -1 -23 5 -24 12 0 10 -2 10 -6 0 -2 -7 -14 -13 -24
-13 -11 0 -18 4 -15 9 4 5 2 21 -3 34 -8 20 -6 27 7 32 9 3 18 1 20 -4 6 -19
25 -12 20 7 -4 13 1 18 19 20 14 1 30 -1 36 -5z m102 -13 c3 -6 -1 -7 -9 -4
-18 7 -21 14 -7 14 6 0 13 -4 16 -10z m121 -27 c-5 -15 -4 -15 9 1 11 15 15
16 17 5 3 -30 4 -34 11 -46 5 -7 -1 -21 -13 -33 -23 -23 -45 -27 -37 -6 7 18
-24 31 -35 14 -6 -11 -8 -10 -8 0 0 7 -4 10 -10 7 -5 -3 -10 -1 -10 6 0 8 -3
9 -13 0 -18 -15 -29 -3 -17 20 7 12 6 19 -3 23 -6 3 -2 3 11 0 12 -3 22 -1 22
5 0 19 17 12 23 -8 4 -16 0 -18 -19 -15 -13 2 -24 1 -24 -4 0 -4 16 -9 37 -10
20 -2 40 -5 45 -8 4 -3 8 0 8 7 0 7 5 8 13 3 7 -5 5 -2 -5 8 -10 9 -15 23 -12
32 8 22 18 20 10 -1z m54 1 c0 -8 -5 -12 -10 -9 -6 4 -8 11 -5 16 9 14 15 11
15 -7z m340 11 c0 -2 -9 -9 -20 -15 -16 -9 -18 -8 -14 5 5 13 34 22 34 10z
m92 -15 c5 -12 7 -12 7 3 1 12 9 17 28 17 21 0 24 -3 15 -12 -7 -7 -12 -17
-12 -22 0 -6 4 -5 8 2 5 7 16 10 25 6 9 -3 15 -10 12 -14 -3 -5 -1 -11 4 -14
15 -10 6 25 -10 35 -10 8 -7 8 11 3 31 -8 51 -24 45 -34 -3 -4 2 -13 10 -20
22 -18 19 -46 -4 -46 -15 0 -17 3 -9 14 8 9 8 16 0 24 -9 9 -12 9 -13 0 -1 -7
-2 -18 -3 -24 -1 -7 5 -21 13 -31 13 -16 13 -17 -2 -11 -12 4 -17 2 -15 -7 2
-8 12 -16 22 -19 18 -5 18 -6 2 -23 -10 -9 -13 -17 -7 -17 6 0 11 -5 11 -11 0
-5 -4 -8 -8 -5 -4 2 -14 1 -21 -3 -10 -6 -9 -11 3 -24 14 -13 13 -16 -12 -22
-26 -6 -26 -7 -8 -21 11 -8 14 -14 7 -14 -7 0 -10 -4 -6 -9 9 -16 -17 -61 -37
-61 -10 0 -18 -7 -18 -16 0 -9 5 -13 13 -9 6 4 1 -3 -12 -14 -13 -12 -19 -21
-15 -21 5 0 5 -4 -1 -8 -5 -4 -16 -15 -24 -25 -12 -15 -11 -20 4 -37 14 -15
16 -23 7 -32 -15 -15 -45 10 -39 33 4 15 2 16 -14 6 -10 -6 -19 -15 -19 -19 0
-4 -7 -5 -15 -2 -8 4 -22 1 -29 -5 -10 -8 -16 -9 -21 -1 -3 5 1 10 9 10 9 0
16 5 16 11 0 6 -7 9 -15 5 -13 -4 -15 4 -14 47 1 28 7 58 13 66 9 12 7 13 -11
9 -17 -5 -23 -2 -23 10 0 14 -2 15 -9 3 -6 -10 -5 -18 4 -25 15 -12 24 -160
11 -174 -4 -4 -6 0 -4 8 2 12 -7 15 -45 15 l-47 0 0 77 0 76 31 7 c34 8 48 30
29 48 -9 9 -11 9 -6 0 4 -7 -1 -9 -13 -6 -11 3 -22 12 -24 22 -4 12 -5 10 -6
-5 0 -11 -9 -29 -20 -38 -17 -16 -19 -16 -25 1 -6 15 -8 15 -16 3 -8 -13 -10
-12 -10 3 0 20 20 23 38 5 8 -8 12 -9 12 -1 0 6 -5 13 -10 15 -7 2 -5 22 5 56
13 44 14 56 3 70 -9 12 -6 11 10 -2 23 -20 23 -20 16 0 -7 17 -6 18 12 4 14
-11 14 -8 -3 11 -22 25 -31 63 -15 72 4 2 2 2 -5 1 -21 -5 -26 16 -8 36 18 20
75 35 115 32 18 -2 21 0 11 7 -11 7 -8 10 10 16 13 4 27 12 31 18 11 18 6 -47
-10 -111 -12 -48 -19 -62 -30 -57 -12 5 -13 3 -2 -10 11 -13 11 -21 0 -43 -18
-37 -20 -52 -8 -52 6 0 4 -8 -3 -17 -13 -16 -12 -17 3 -4 10 7 15 18 11 24 -4
6 0 8 10 4 11 -4 17 -1 17 8 0 11 12 15 43 15 l42 0 -24 19 c-19 14 -22 24
-17 45 7 29 25 35 27 9 3 -27 6 -47 8 -53 2 -3 4 -13 6 -24 2 -10 8 -23 13
-28 15 -15 11 23 -13 112 -25 90 -30 181 -11 177 6 -1 14 -9 18 -17z m-168
-14 c-3 -9 -15 -17 -25 -17 -10 -1 -24 -2 -31 -3 -6 -1 -13 5 -16 13 -4 11 2
13 27 8 23 -5 30 -3 25 5 -4 7 -3 8 4 4 7 -4 12 -2 12 5 0 7 2 10 5 7 3 -3 3
-13 -1 -22z m-844 -26 c0 -5 -5 -10 -11 -10 -5 0 -7 5 -4 10 3 6 8 10 11 10 2
0 4 -4 4 -10z m344 -21 c-2 -4 0 -19 6 -33 9 -25 9 -26 -13 -14 -12 7 -25 11
-28 10 -9 -2 2 40 14 56 8 10 12 10 18 0 4 -6 6 -15 3 -19z m48 -1 c-4 -15 -2
-19 7 -13 10 6 11 3 2 -14 -14 -25 -27 -27 -35 -6 -3 8 -1 15 4 15 6 0 10 7
10 15 0 8 -6 15 -12 15 -9 0 -8 3 2 9 20 13 29 5 22 -21z m-106 -30 c0 -9 -4
-14 -8 -12 -4 3 -8 1 -8 -5 0 -5 6 -11 13 -14 25 -8 -14 -38 -47 -35 -26 2
-32 8 -34 31 -5 38 14 57 52 54 22 -1 32 -7 32 -19z m661 -28 c-5 -43 -12 -58
-24 -46 -4 4 -2 11 6 15 7 5 12 11 12 15 -3 22 0 56 5 56 3 0 4 -18 1 -40z
m32 -7 c1 -7 -3 -13 -9 -13 -5 0 -10 15 -9 33 0 27 2 29 9 12 5 -11 9 -26 9
-32z m351 21 c0 -11 -5 -14 -16 -10 -9 3 -18 6 -20 6 -3 0 -2 5 1 10 10 16 35
12 35 -6z m-806 -2 c3 -5 -7 -8 -22 -7 -15 2 -19 0 -9 -2 10 -3 17 -14 17 -27
0 -29 -6 -35 -31 -29 -14 4 -19 14 -19 39 0 31 3 34 29 34 17 0 32 -4 35 -8z
m-517 -44 c-3 -7 -5 -2 -5 12 0 14 2 19 5 13 2 -7 2 -19 0 -25z m753 7 c0 -20
-5 -25 -25 -25 -20 0 -25 5 -25 25 0 20 5 25 25 25 20 0 25 -5 25 -25z m-226
-30 c-4 -8 -8 -15 -10 -15 -2 0 -4 7 -4 15 0 8 4 15 10 15 5 0 7 -7 4 -15z
m94 -30 c-3 -3 -9 2 -12 12 -6 14 -5 15 5 6 7 -7 10 -15 7 -18z m324 0 c4 -16
0 -21 -18 -20 -12 0 -26 4 -31 8 -4 5 -2 7 6 5 7 -1 16 3 19 11 3 9 0 11 -8 6
-8 -5 -11 -4 -7 2 11 17 35 10 39 -12z m-305 -7 c-3 -8 -6 -5 -6 6 -1 11 2 17
5 13 3 -3 4 -12 1 -19z m37 6 c3 -8 2 -12 -4 -9 -6 3 -10 10 -10 16 0 14 7 11
14 -7z m53 10 c-3 -3 -12 -4 -19 -1 -8 3 -5 6 6 6 11 1 17 -2 13 -5z m-211
-47 c-2 -7 -5 -3 -6 8 l-1 20 -9 -20 c-7 -16 -9 -17 -9 -3 -1 9 -7 18 -13 21
-7 2 -5 3 5 2 9 -2 17 2 17 8 0 7 5 4 11 -6 6 -10 8 -23 5 -30z m-69 27 c-3
-3 -12 -4 -19 -1 -8 3 -5 6 6 6 11 1 17 -2 13 -5z m100 -41 c-3 -10 -5 -2 -5
17 0 19 2 27 5 18 2 -10 2 -26 0 -35z m50 10 c-3 -10 -5 -4 -5 12 0 17 2 24 5
18 2 -7 2 -21 0 -30z m150 31 c-3 -3 -12 -4 -19 -1 -8 3 -5 6 6 6 11 1 17 -2
13 -5z m-287 -26 c0 -9 4 -8 10 2 6 9 10 10 10 3 0 -19 -14 -22 -35 -7 -16 12
-17 14 -2 14 9 0 17 -6 17 -12z m260 2 c0 -5 -4 -10 -9 -10 -6 0 -13 5 -16 10
-3 6 1 10 9 10 9 0 16 -4 16 -10z m-93 -22 c-3 -8 -6 -5 -6 6 -1 11 2 17 5 13
3 -3 4 -12 1 -19z m104 -5 c-12 -20 -14 -14 -5 12 4 9 9 14 11 11 3 -2 0 -13
-6 -23z m-77 1 c3 -8 2 -12 -4 -9 -6 3 -10 10 -10 16 0 14 7 11 14 -7z m-204
-16 c0 -5 -5 -6 -10 -3 -6 3 -13 -1 -16 -9 -5 -12 -11 -13 -24 -6 -27 14 -34
12 -20 -5 15 -18 -1 -20 -18 -3 -8 8 -15 8 -29 -2 -10 -8 -7 -2 7 12 18 19 30
23 42 17 23 -12 38 -11 38 2 0 5 -5 7 -12 3 -6 -4 -8 -3 -5 4 8 12 47 4 47
-10z m257 6 c-3 -3 -12 -4 -19 -1 -8 3 -5 6 6 6 11 1 17 -2 13 -5z m-47 -17
c11 3 20 0 20 -6 0 -6 -13 -10 -29 -9 -21 1 -27 6 -23 17 3 9 7 10 9 4 2 -6
13 -9 23 -6z m711 -20 l-10 -26 -40 17 -40 17 37 3 c20 2 41 7 46 13 15 14 17
4 7 -24z m-651 11 c0 -4 -7 -8 -15 -8 -8 0 -15 4 -15 8 0 5 7 9 15 9 8 0 15
-4 15 -9z m-255 -30 c4 4 2 -3 -4 -15 -14 -27 -23 -31 -14 -6 4 9 2 14 -3 10
-6 -3 -16 -2 -24 3 -9 5 -32 -2 -67 -20 -52 -28 -52 -28 -35 -5 9 13 29 27 44
30 15 4 30 11 33 16 4 5 18 3 34 -6 16 -8 32 -11 36 -7z m152 8 c9 -8 -26 -75
-71 -135 -25 -35 -51 -80 -57 -101 -11 -35 -14 -37 -39 -30 -15 4 -36 13 -47
18 -18 10 -20 8 -15 -14 4 -20 -1 -26 -27 -35 -17 -6 -31 -15 -31 -21 0 -5 -5
-6 -11 -2 -8 4 -7 9 2 15 8 5 9 9 3 9 -19 0 -23 -11 -14 -36 7 -17 4 -36 -10
-70 -18 -41 -21 -44 -36 -30 -8 9 -26 16 -39 16 -30 0 -39 14 -25 40 8 14 17
19 30 15 24 -8 35 11 14 23 -24 13 -8 35 15 22 24 -12 34 -1 18 19 -10 14 -10
14 5 3 14 -11 18 -10 26 4 6 11 11 13 16 5 9 -15 22 -14 24 2 0 6 3 21 7 32 5
17 -2 25 -35 44 -39 22 -40 24 -25 41 9 10 43 32 75 49 62 33 96 68 107 109 6
24 8 24 71 19 36 -4 67 -8 69 -11z m57 -2 c13 -5 11 -9 -7 -28 -15 -15 -24
-19 -29 -12 -5 7 -8 4 -8 -6 0 -10 -4 -18 -9 -18 -5 0 -7 -10 -5 -22 4 -21 3
-21 -4 -3 -12 26 8 77 27 70 11 -4 12 -3 1 10 -10 12 -10 15 3 15 8 0 22 -3
31 -6z m656 -19 c19 -7 31 -14 25 -15 -5 -1 -18 -3 -29 -5 -25 -5 -46 4 -46
21 0 17 4 17 50 -1z m-923 -1 c-3 -4 -2 -15 4 -26 7 -13 7 -23 0 -32 -15 -18
-68 -18 -75 1 -9 23 2 33 37 34 18 0 26 3 18 6 -11 5 -11 7 0 14 16 10 25 12
16 3z m-174 -24 c-3 -12 0 -20 6 -20 7 0 10 -4 7 -8 -2 -4 4 -13 14 -20 12 -7
21 -8 25 -2 3 6 -1 10 -9 10 -9 0 -16 5 -16 11 0 16 48 2 79 -23 15 -12 19
-19 9 -15 -10 4 -18 2 -18 -4 0 -6 -4 -8 -9 -4 -5 3 -12 1 -16 -5 -3 -5 -12
-10 -18 -10 -7 0 -6 4 3 10 13 8 12 10 -2 10 -10 0 -18 -4 -18 -10 0 -16 -43
-5 -54 14 -8 12 -7 19 3 25 7 5 10 14 6 20 -4 7 -4 18 -1 26 8 22 15 18 9 -5z
m501 4 c13 -5 16 -22 16 -85 0 -77 0 -78 -22 -70 -13 5 -33 5 -45 0 -23 -8
-23 -7 -23 66 0 60 3 76 18 84 20 12 34 13 56 5z m-846 -39 c-3 -3 -9 2 -12
12 -6 14 -5 15 5 6 7 -7 10 -15 7 -18z m166 -76 c-10 -11 -23 -18 -30 -15 -7
3 -18 -3 -26 -12 -12 -16 -11 -16 7 -2 20 15 20 14 1 -8 -31 -36 -11 -37 33
-2 53 43 71 29 20 -17 -36 -33 -38 -37 -24 -53 17 -19 21 -45 5 -35 -6 4 -7
11 -4 17 5 7 1 9 -9 5 -11 -4 -14 -2 -10 9 3 7 0 14 -7 14 -6 0 -9 4 -6 9 3 5
-1 12 -10 15 -9 4 -14 13 -10 21 3 8 1 15 -4 15 -23 0 -7 20 33 43 47 27 67
25 41 -4z m194 -30 c-20 -26 -24 -28 -37 -14 -13 13 -12 17 9 40 17 18 27 22
36 14 11 -9 9 -17 -8 -40z m912 5 c0 -11 -5 -14 -16 -10 -9 3 -18 6 -20 6 -3
0 -2 5 1 10 10 16 35 12 35 -6z m-530 -4 c0 -5 -5 -10 -11 -10 -5 0 -7 5 -4
10 3 6 8 10 11 10 2 0 4 -4 4 -10z m130 -54 c0 -2 -6 -6 -14 -9 -8 -3 -16 2
-19 14 -4 16 -2 17 14 8 10 -5 19 -11 19 -13z m369 -2 c25 -32 26 -44 4 -44
-23 0 -53 29 -53 52 0 26 25 22 49 -8z m-849 -21 c0 -7 -39 17 -46 28 -3 6 5
3 20 -6 14 -10 26 -19 26 -22z m520 17 c0 -4 -9 -10 -21 -13 -15 -4 -18 -2
-10 7 6 7 8 16 4 20 -4 4 0 4 10 0 9 -3 17 -10 17 -14z m34 8 c-5 -8 -2 -9 9
-5 11 4 20 -1 27 -14 12 -22 6 -39 -15 -39 -14 0 -37 54 -28 64 11 10 15 7 7
-6z m-634 -45 c0 -20 -28 -53 -47 -53 -17 0 -17 20 3 48 18 26 44 29 44 5z
m-11 -75 c-13 -17 -25 -26 -27 -20 -2 7 7 21 20 32 32 27 33 25 7 -12z m-54
-7 l20 -24 -22 14 c-13 8 -23 20 -23 28 0 8 1 12 3 10 1 -2 11 -15 22 -28z
m209 -55 c-9 -26 -15 -49 -13 -51 2 -2 16 -6 32 -10 18 -5 27 -3 27 5 0 6 -9
14 -19 17 -28 7 -15 33 15 31 19 -2 24 -8 24 -28 0 -48 40 -67 60 -29 15 27 4
38 -14 13 -14 -18 -15 -18 -22 0 -8 22 6 68 24 74 6 2 12 -3 12 -11 0 -9 5
-17 12 -19 8 -3 9 -16 2 -49 -8 -36 -13 -43 -29 -41 -11 2 -26 10 -34 17 -9 9
-22 10 -42 5 -18 -5 -27 -5 -24 1 4 5 -1 9 -10 9 -8 0 -18 7 -21 15 -4 8 -10
13 -15 10 -12 -8 -4 24 17 68 24 51 38 32 18 -27z m486 15 c16 -32 13 -63 -7
-59 -11 2 -18 12 -17 25 0 12 -3 20 -8 17 -4 -3 -8 4 -8 15 0 26 26 27 40 2z
m-263 -23 c-3 -8 -6 -5 -6 6 -1 11 2 17 5 13 3 -3 4 -12 1 -19z m131 -38 c-4
-35 -32 -32 -36 3 -2 16 -1 36 3 45 6 15 8 15 21 -3 8 -11 14 -31 12 -45z
m192 -6 c0 -22 -31 -46 -44 -34 -7 5 -15 9 -17 7 -2 -1 4 4 13 12 10 7 18 22
18 33 0 17 3 18 15 8 8 -7 15 -18 15 -26z m-358 -14 c-3 -18 0 -30 7 -30 6 0
12 12 12 28 2 24 2 24 6 4 3 -13 -1 -30 -8 -38 -11 -14 -13 -14 -21 1 -5 8
-13 13 -19 10 -10 -7 -12 15 -3 39 11 29 31 18 26 -14z m248 -24 c0 -2 -9 -6
-20 -9 -11 -3 -18 -1 -14 4 5 9 34 13 34 5z"/>
<path d="M1190 2120 c0 -5 5 -10 10 -10 6 0 10 5 10 10 0 6 -4 10 -10 10 -5 0
-10 -4 -10 -10z"/>
<path d="M1030 2109 c0 -5 5 -7 10 -4 6 3 10 8 10 11 0 2 -4 4 -10 4 -5 0 -10
-5 -10 -11z"/>
<path d="M970 2096 c-6 -9 -10 -21 -8 -28 6 -16 -84 -58 -125 -58 -41 0 -54
-9 -58 -40 -4 -22 -8 -25 -38 -22 -22 3 -31 0 -27 -7 4 -6 14 -11 22 -11 8 0
-1 -14 -22 -32 -21 -18 -42 -32 -47 -30 -4 1 -6 -2 -2 -8 4 -6 -6 -10 -24 -10
-24 0 -31 -4 -31 -19 0 -11 5 -21 12 -23 6 -2 8 -10 4 -17 -6 -9 -11 -8 -23 6
-13 17 -14 17 -5 -2 5 -11 7 -25 5 -32 -2 -6 10 -14 26 -18 17 -4 31 -11 31
-16 0 -5 5 -9 10 -9 6 0 10 9 10 20 0 18 3 19 23 10 13 -7 6 3 -16 22 -41 36
-40 60 1 28 38 -31 49 -24 17 10 -27 28 -28 31 -13 47 16 15 17 15 11 -5 -4
-17 1 -23 23 -28 19 -5 30 -2 39 10 7 9 18 16 25 16 8 0 2 12 -14 29 -16 16
-23 31 -18 35 6 3 20 -6 31 -20 29 -37 39 -23 11 15 -12 17 -17 31 -12 31 6 0
19 -12 30 -27 11 -16 23 -25 27 -21 4 4 -2 19 -14 34 -21 27 -20 44 4 44 8 0
11 -7 8 -19 -4 -16 -1 -19 16 -14 17 4 19 9 10 25 -18 33 -2 32 17 -1 10 -17
22 -31 26 -31 12 0 10 9 -9 41 -16 26 -16 31 -3 39 22 14 27 12 26 -12 -1 -18
4 -23 22 -22 12 0 22 -3 22 -8 0 -4 4 -8 10 -8 5 0 7 15 5 33 -4 27 -4 29 4 7
8 -23 9 -23 16 -6 5 11 3 26 -4 37 -9 15 -8 19 3 19 8 0 17 -13 21 -30 4 -16
11 -30 16 -30 5 0 6 12 2 28 -3 15 -6 35 -5 45 0 9 -4 17 -10 17 -6 0 -19 7
-28 15 -15 14 -19 14 -30 1z m30 -20 c0 -3 -4 -8 -10 -11 -5 -3 -10 -1 -10 4
0 6 5 11 10 11 6 0 10 -2 10 -4z m-45 -76 c3 -5 1 -10 -4 -10 -6 0 -11 5 -11
10 0 6 2 10 4 10 3 0 8 -4 11 -10z m-129 -15 c-20 -15 -36 -19 -36 -10 0 5 38
23 50 24 3 0 -4 -6 -14 -14z m-70 -109 c3 -8 0 -23 -6 -33 -11 -17 -11 -17 -6
1 5 14 2 17 -10 12 -13 -5 -14 -4 -6 7 7 8 9 17 5 20 -3 4 -1 7 6 7 6 0 14 -6
17 -14z m-98 -115 c3 -8 -1 -12 -9 -9 -7 2 -15 10 -17 17 -3 8 1 12 9 9 7 -2
15 -10 17 -17z"/>
<path d="M1103 2093 c0 -7 9 -13 19 -13 10 0 18 -5 18 -11 0 -5 -4 -7 -10 -4
-22 14 -8 -13 22 -41 l32 -29 -17 28 c-17 26 -17 27 3 27 14 0 20 -7 20 -21 0
-11 4 -18 9 -14 5 3 7 21 4 40 -5 33 -4 35 21 35 14 0 26 -5 26 -11 0 -6 -7
-9 -15 -5 -8 3 -15 2 -15 -2 0 -14 31 -52 42 -52 7 0 7 4 -1 13 -18 23 0 28
26 7 13 -10 31 -16 39 -13 8 3 14 0 14 -6 0 -6 5 -11 10 -11 6 0 10 14 10 30
0 17 5 30 11 30 7 0 9 -12 5 -35 -4 -21 -3 -35 3 -35 6 0 13 15 16 34 7 32 8
34 37 25 43 -12 50 -23 9 -14 -26 5 -32 4 -29 -6 3 -8 13 -14 24 -14 14 0 18
-6 16 -23 -5 -33 15 -27 23 8 4 17 11 30 16 30 5 0 9 4 9 9 0 5 -30 17 -67 27
-38 9 -76 21 -85 26 -10 5 -18 5 -18 0 0 -4 -15 -7 -32 -5 -94 10 -195 7 -195
-4z m177 -13 c0 -5 -4 -10 -10 -10 -5 0 -10 5 -10 10 0 6 5 10 10 10 6 0 10
-4 10 -10z m60 -20 c-6 -11 -17 -20 -25 -20 -12 0 -12 4 3 19 23 26 35 26 22
1z"/>
<path d="M1036 1961 c-4 -5 3 -7 14 -4 23 6 26 13 6 13 -8 0 -17 -4 -20 -9z"/>
<path d="M1790 1910 c0 -5 5 -10 11 -10 5 0 7 5 4 10 -3 6 -8 10 -11 10 -2 0
-4 -4 -4 -10z"/>
<path d="M1270 1803 c15 -7 12 -42 -4 -39 -8 1 -21 8 -30 16 -12 9 -20 10 -27
3 -8 -8 -7 -13 0 -17 19 -12 12 -26 -10 -23 -30 3 -36 -21 -8 -32 l24 -8 -23
-7 c-32 -11 -21 -32 14 -28 27 3 28 3 11 -16 -9 -10 -17 -22 -17 -25 0 -11 25
-8 38 5 6 6 19 13 27 14 18 3 20 -32 3 -39 -8 -3 -6 -6 5 -6 12 -1 17 7 17 23
0 14 4 28 10 31 5 3 7 0 4 -8 -3 -8 -1 -18 5 -22 7 -4 9 1 5 12 -5 16 -4 16
10 -1 9 -11 16 -15 16 -9 0 7 -4 15 -10 18 -20 12 -9 25 15 19 19 -5 25 -2 25
10 0 9 -5 16 -11 16 -5 0 -7 -4 -4 -10 8 -13 -5 -13 -25 0 -11 7 -11 10 -2 10
7 0 10 5 7 10 -3 6 1 10 9 10 8 0 18 5 22 11 10 17 -9 30 -26 18 -13 -9 -12
-10 3 -5 9 3 17 1 17 -4 0 -6 -10 -10 -21 -10 -16 0 -20 5 -16 20 3 12 1 18
-5 14 -5 -3 -7 -17 -4 -30 10 -37 -10 -64 -45 -64 -22 0 -32 6 -38 23 -12 30
10 62 43 62 14 -1 28 5 31 13 2 7 1 10 -4 7 -5 -3 -11 5 -13 17 -2 12 -9 23
-16 24 -7 1 -8 0 -2 -3z m-36 -39 c5 -14 4 -15 -9 -4 -17 14 -19 20 -6 20 5 0
12 -7 15 -16z m-24 -34 c12 -8 11 -10 -7 -10 -13 0 -23 5 -23 10 0 13 11 13
30 0z m0 -50 c-20 -13 -33 -13 -25 0 3 6 14 10 23 10 15 0 15 -2 2 -10z m25
-39 c-3 -6 -11 -11 -17 -11 -6 0 -6 6 2 15 14 17 26 13 15 -4z"/>
<path d="M1310 1786 c0 -2 7 -7 16 -10 8 -3 12 -2 9 4 -6 10 -25 14 -25 6z"/>
<path d="M946 1687 c5 -13 54 -20 54 -7 0 4 11 6 25 5 14 -2 23 0 20 4 -5 9
-42 8 -51 -1 -3 -4 -17 -3 -30 2 -17 7 -22 6 -18 -3z"/>
<path d="M724 1431 c4 -5 0 -11 -6 -14 -7 -3 -3 -4 9 -4 17 1 19 4 11 14 -12
15 -22 18 -14 4z"/>
<path d="M781 1207 c2 -1 13 -9 24 -17 19 -14 19 -14 6 3 -7 9 -18 17 -24 17
-6 0 -8 -1 -6 -3z"/>
<path d="M760 1150 c-9 -6 -10 -10 -3 -10 6 0 15 5 18 10 8 12 4 12 -15 0z"/>
<path d="M800 1130 c-13 -8 -12 -10 3 -10 9 0 17 5 17 10 0 12 -1 12 -20 0z"/>
<path d="M805 1100 c3 -5 8 -10 11 -10 2 0 4 5 4 10 0 6 -5 10 -11 10 -5 0 -7
-4 -4 -10z"/>
<path d="M1682 2004 c10 -10 20 -15 24 -12 3 4 -5 12 -18 18 -22 12 -22 12 -6
-6z"/>
<path d="M447 1259 c7 -7 15 -10 18 -7 3 3 -2 9 -12 12 -14 6 -15 5 -6 -5z"/>
<path d="M775 910 c-3 -5 1 -10 10 -10 9 0 13 5 10 10 -3 6 -8 10 -10 10 -2 0
-7 -4 -10 -10z"/>
<path d="M826 1414 c4 -16 8 -30 9 -32 1 -1 14 11 28 28 25 28 25 44 -1 18 -8
-8 -15 -8 -27 2 -15 12 -15 10 -9 -16z"/>
<path d="M1430 1359 c0 -5 -6 -7 -12 -3 -7 4 -9 3 -5 -1 13 -15 34 -14 34 1 0
8 -4 14 -9 14 -4 0 -8 -5 -8 -11z"/>
<path d="M1391 1274 c0 -11 3 -14 6 -6 3 7 2 16 -1 19 -3 4 -6 -2 -5 -13z"/>
<path d="M1671 1273 c7 -7 14 -11 17 -8 3 3 11 0 19 -7 11 -8 12 -7 8 5 -4 8
-17 17 -31 20 -20 3 -22 2 -13 -10z"/>
<path d="M1580 1241 c0 -5 5 -13 10 -16 6 -3 10 -2 10 4 0 5 -4 13 -10 16 -5
3 -10 2 -10 -4z"/>
<path d="M1681 1211 c-8 -6 -9 -11 -3 -15 6 -3 14 -1 17 5 9 14 2 20 -14 10z"/>
<path d="M1409 1153 c-13 -16 -12 -17 3 -5 9 8 23 10 29 6 8 -4 9 -3 5 4 -10
17 -21 15 -37 -5z"/>
<path d="M1550 1109 c0 -5 -4 -7 -10 -4 -5 3 -10 2 -10 -4 0 -5 9 -9 19 -8 11
0 17 6 14 14 -6 16 -13 17 -13 2z"/>
<path d="M1500 1096 c0 -9 5 -16 10 -16 6 0 10 4 10 9 0 6 -4 13 -10 16 -5 3
-10 -1 -10 -9z"/>
<path d="M1595 1100 c3 -5 8 -10 11 -10 2 0 4 5 4 10 0 6 -5 10 -11 10 -5 0
-7 -4 -4 -10z"/>
<path d="M1510 1030 c-11 -7 -11 -10 -2 -10 8 0 10 -5 5 -12 -11 -19 -12 -37
-2 -44 5 -3 9 1 9 9 0 19 27 30 33 14 2 -7 6 0 9 15 3 18 0 29 -9 32 -8 3 -11
1 -8 -4 3 -6 -1 -10 -10 -10 -9 0 -13 5 -10 10 8 12 4 12 -15 0z"/>
<path d="M1636 1032 c-3 -5 1 -9 9 -9 8 0 12 4 9 9 -3 4 -7 8 -9 8 -2 0 -6 -4
-9 -8z"/>
<path d="M837 1333 c-21 -5 -20 -55 1 -59 7 -1 8 0 2 3 -5 2 -10 9 -10 14 0
10 32 -1 41 -14 4 -5 6 5 4 24 -2 35 -8 40 -38 32z"/>
<path d="M846 1002 c-3 -6 -1 -14 5 -17 15 -10 25 3 12 16 -7 7 -13 7 -17 1z"/>
<path d="M1477 613 c-4 -3 -7 -11 -7 -17 0 -6 5 -5 12 2 6 6 9 14 7 17 -3 3
-9 2 -12 -2z"/>
<path d="M1970 1273 c-106 -8 -115 -21 -35 -53 52 -21 91 -20 52 1 -23 13 -22
29 2 29 10 0 21 7 25 15 3 8 4 14 3 13 -1 -1 -22 -3 -47 -5z m-23 -29 c-3 -3
-12 -4 -19 -1 -8 3 -5 6 6 6 11 1 17 -2 13 -5z"/>
<path d="M1178 932 c-26 -5 -22 -22 5 -18 12 1 21 6 20 10 -2 11 -6 13 -25 8z"/>
<path d="M1160 854 c-21 -12 -22 -14 -5 -12 13 2 19 -2 17 -12 -2 -8 0 -12 4
-7 6 5 15 49 10 47 -1 -1 -12 -7 -26 -16z"/>
<path d="M1625 711 c-3 -5 -2 -12 3 -15 5 -3 9 1 9 9 0 17 -3 19 -12 6z"/>
<path d="M256 648 c-3 -13 -6 -33 -6 -46 0 -23 -2 -23 -55 -17 -54 7 -55 7
-55 -19 0 -25 73 -119 154 -195 l36 -35 0 33 0 33 38 -31 c175 -147 382 -249
602 -297 66 -15 126 -19 270 -19 170 1 194 3 295 29 219 56 384 139 543 273
l52 45 0 -34 1 -33 83 85 c96 99 121 134 112 156 -5 14 -16 15 -61 9 l-55 -6
0 29 c0 82 -30 81 -104 -3 -51 -58 -60 -64 -86 -58 -24 4 -38 -2 -77 -35 -337
-280 -809 -338 -1198 -144 -78 38 -169 98 -230 149 -30 26 -47 33 -74 31 -31
-3 -39 3 -85 59 -55 66 -89 80 -100 41z"/>
</g>
</svg>
